<svg width="25" height="25" viewBox="0 0 72 72" fill="none" xmlns="http://www.w3.org/2000/svg">
<path d="M35.958 58.99C48.6605 58.99 58.958 48.6926 58.958 35.99C58.958 23.2875 48.6605 12.99 35.958 12.99C23.2555 12.99 12.958 23.2875 12.958 35.99C12.958 48.6926 23.2555 58.99 35.958 58.99Z" fill="white"/>
<path d="M36 18.989V35.989ZM41.782 46.049L36.009 36.049Z" fill="white"/>
<path d="M35.958 58.99C48.6605 58.99 58.958 48.6926 58.958 35.99C58.958 23.2875 48.6605 12.99 35.958 12.99C23.2555 12.99 12.958 23.2875 12.958 35.99C12.958 48.6926 23.2555 58.99 35.958 58.99Z" stroke="black" stroke-width="2" stroke-miterlimit="10" stroke-linecap="round" stroke-linejoin="round"/>
<path d="M36 18.989V35.989M41.782 46.049L36.009 36.049" stroke="black" stroke-width="2" stroke-miterlimit="10" stroke-linecap="round" stroke-linejoin="round"/>
</svg>
